<?xml version="1.0" encoding="UTF-8"?>
<svg width="451px" height="468px" viewBox="0 0 451 468" version="1.1" xmlns="http://www.w3.org/2000/svg"
>
  <title>编组 5</title>
  <g id="用户端新" stroke="none" stroke-width="1" fill="none" fill-rule="evenodd">
    <g id="1" transform="translate(-180.000000, -289.000000)">
      <g id="编组-5" transform="translate(180.000000, 289.000000)">
        <rect id="矩形" fill="#D8D8D8" opacity="0" x="9" y="0" width="414" height="468"></rect>
        <rect id="矩形" fill="#FFFFFF" x="94.5" y="32.4" width="261.9" height="189.789593" rx="3.6"></rect>
        <path
          d="M352.8,32.4 C354.788225,32.4 356.4,34.0117749 356.4,36 L356.4,218.589593 C356.4,220.577818 354.788225,222.189593 352.8,222.189593 L98.1,222.189593 C96.1117749,222.189593 94.5,220.577818 94.5,218.589593 L94.5,36 C94.5,34.0117749 96.1117749,32.4 98.1,32.4 L352.8,32.4 Z M352.8,33.21 L98.1,33.21 C96.6122591,33.21 95.3964935,34.3744642 95.3144166,35.8416792 L95.31,36 L95.31,218.589593 C95.31,220.077334 96.4744642,221.2931 97.9416792,221.375176 L98.1,221.379593 L352.8,221.379593 C354.287741,221.379593 355.503507,220.215129 355.585583,218.747914 L355.59,218.589593 L355.59,36 C355.59,34.5122591 354.425536,33.2964935 352.958321,33.2144166 L352.8,33.21 Z"
          id="矩形" fill="#000000" fill-rule="nonzero"></path>
        <path
          d="M98.5049579,33.3 L353.204958,33.3 C354.696127,33.3 355.904958,34.5088312 355.904958,36 L355.904958,60.3 L355.904958,60.3 L95.8049579,60.3 L95.8049579,36 C95.8049579,34.5088312 97.0137891,33.3 98.5049579,33.3 Z"
          id="矩形" fill="#000000" opacity="0.04"></path>
        <polygon id="矩形" fill="#000000" fill-rule="nonzero"
          points="356.069634 59.8551643 356.069634 60.6803365 94.5 60.6803365 94.5 59.8551643"></polygon>
        <path
          d="M112.709217,39.6 C108.840843,39.6 105.704958,42.736891 105.704958,46.6063771 C105.704958,50.4758633 108.840843,53.6127543 112.709217,53.6127543 C116.577592,53.6127543 119.713477,50.4758633 119.713477,46.6063771 C119.713477,42.736891 116.577592,39.6 112.709217,39.6 Z M112.709217,40.41 C116.130183,40.41 118.903477,43.1841835 118.903477,46.6063771 C118.903477,50.0285708 116.130183,52.8027543 112.709217,52.8027543 C109.288251,52.8027543 106.514958,50.0285708 106.514958,46.6063771 C106.514958,43.1841835 109.288251,40.41 112.709217,40.41 Z"
          id="椭圆形" fill="#000000" fill-rule="nonzero"></path>
        <path
          d="M142.409217,39.6 C138.540843,39.6 135.404958,42.736891 135.404958,46.6063771 C135.404958,50.4758633 138.540843,53.6127543 142.409217,53.6127543 C146.277592,53.6127543 149.413477,50.4758633 149.413477,46.6063771 C149.413477,42.736891 146.277592,39.6 142.409217,39.6 Z M142.409217,40.41 C145.830183,40.41 148.603477,43.1841835 148.603477,46.6063771 C148.603477,50.0285708 145.830183,52.8027543 142.409217,52.8027543 C138.988251,52.8027543 136.214958,50.0285708 136.214958,46.6063771 C136.214958,43.1841835 138.988251,40.41 142.409217,40.41 Z"
          id="椭圆形" fill="#000000" fill-rule="nonzero"></path>
        <ellipse id="椭圆形" fill="#000000" cx="172.10921" cy="46.6065" rx="7.00425225" ry="7.0065"></ellipse>
        <path
          d="M266.178643,116.590074 C266.825895,117.237326 266.833871,118.284242 266.196555,118.941281 L234.210952,151.916668 C235.214821,153.465582 235.797778,155.312793 235.797778,157.296206 C235.797778,162.764966 231.365895,167.198272 225.898889,167.198272 C220.431884,167.198272 216,162.764966 216,157.296206 C216,151.827446 220.431884,147.39414 225.898889,147.39414 C227.665655,147.39414 229.324315,147.857146 230.760224,148.668477 L263.82783,116.572567 C264.484585,115.935089 265.531454,115.942886 266.178643,116.590074 Z"
          id="形状结合" fill="#000000"></path>
        <path
          d="M139.604011,137.013859 C142.643414,137.979726 144.324599,141.227429 143.359042,144.267808 C140.711629,152.604077 139.348704,156.8469 139.348704,165.780642 C139.348704,168.970751 136.763438,171.556847 133.574352,171.556847 C130.385265,171.556847 127.8,168.970751 127.8,165.780642 C127.8,155.656552 129.346805,150.234184 132.352389,140.770096 C133.317945,137.729717 136.564607,136.047993 139.604011,137.013859 Z M225.139076,72.9103286 C278.897963,72.9103286 322.478151,112.904503 322.478151,166.680642 C322.478151,169.870751 319.892886,172.456847 316.703799,172.456847 C313.514713,172.456847 310.929448,169.870751 310.929448,166.680642 C310.929448,119.284723 272.51979,84.4627386 225.139076,84.4627386 C219.459473,84.4627386 213.853962,85.0140301 208.37556,86.0991355 C205.24721,86.7187669 202.209031,84.6842344 201.589599,81.5548801 C200.970166,78.4255258 203.004046,75.3863725 206.132396,74.7667411 C212.348565,73.5355064 218.705349,72.9103286 225.139076,72.9103286 Z M190.725282,85.178344 C192.106853,88.0535545 190.896768,91.5047178 188.02248,92.8867329 C173.38625,99.9241247 160.999734,111.023716 152.378772,124.790543 C150.685812,127.494032 147.12249,128.312787 144.419869,126.619285 C141.717248,124.925783 140.898755,121.361317 142.591714,118.657829 C152.369263,103.044047 166.413163,90.4592686 183.019366,82.4746746 C185.893654,81.0926595 189.34371,82.3031335 190.725282,85.178344 Z"
          id="形状" stroke="#000000" stroke-width="0.81" fill-opacity="0" fill="#979797" fill-rule="nonzero"></path>
        <path
          d="M282.130082,195.156677 C284.143094,192.520623 285.893807,189.187141 287.38222,185.15623 C288.870634,181.125318 289.985749,176.697586 290.727566,171.873032 L294.646104,171 C299.642822,162.166185 302.726895,157.876815 303.898321,158.131891 C305.069748,158.386967 304.733406,163.276337 302.889296,172.8 C307.292829,176.627975 309.916019,179.627975 310.758866,181.8 C312.023136,185.058037 307.214007,191.757279 303.898321,194.31383 C301.687864,196.018197 299.053858,197.175606 295.996302,197.786056 L292.5,206.70508 L282.130082,195.156677 Z"
          id="路径-49" fill="#FFC09F"></path>
        <path
          d="M192.15,130.933087 L180,137.300929 L177.059334,137.300929 C174.633453,139.378604 173.712412,141.434663 174.296212,143.469107 C174.880011,145.50355 176.999437,146.859852 180.654489,147.538012 L177.614551,161.343874 L195.75,164.039649 L195.3,155.7 C202.8,154.162514 206.7,149.662514 207,142.2 C207.3,134.737486 202.35,130.981848 192.15,130.933087 Z"
          id="路径-2" fill="#FFC09F"></path>
        <path
          d="M184.028127,141.54612 L184.95208,144 C186.682106,143.019491 187.976467,142.201531 188.835162,141.54612 C189.693857,140.890709 190.798803,139.877365 192.15,138.506088 C194.240685,138.373454 196.388613,137.977401 198.593784,137.317927 C200.798954,136.658453 202.701026,135.515524 204.3,133.889141 C200.991581,129.981533 196.701367,128.280851 191.429358,128.787095 C186.15735,129.293339 182.347563,132.136949 180,137.317927 L184.028127,141.54612 Z"
          id="路径-47" stroke="#000000" stroke-width="0.9" fill="#000000"></path>
        <path
          d="M189.9,155.7 C189.947588,156.684692 190.494623,157.787486 191.541105,159.008381 C192.587587,160.229277 193.840552,161.226483 195.3,162 L195.3,155.7 L189.9,155.7 Z"
          id="路径-48" stroke="#000000" stroke-width="0.9" fill="#000000"></path>
        <path
          d="M193.604756,128.25 C203.178501,128.25 208.810034,135.257165 207.160685,146.235792 C206.011625,153.884323 200.159647,157.109284 189.820768,155.901548 L189.430958,155.85418 L189.543613,154.961259 C199.689651,156.241336 205.190597,153.291436 206.270672,146.102084 C207.840334,135.653885 202.613279,129.15 193.604756,129.15 C188.003706,129.15 183.677828,131.814001 180.581419,137.187104 L180.393378,137.519455 L179.606622,137.082404 C182.868738,131.210107 187.550969,128.25 193.604756,128.25 Z"
          id="路径-37" fill="#000000" fill-rule="nonzero"></path>
        <path
          d="M173.994857,139.834313 C176.080396,134.905585 179.498627,135.236343 183.765847,140.584514 L183.954656,140.823717 L183.245344,141.377683 C179.253261,136.266122 176.614502,135.952876 174.823709,140.185033 C173.035227,144.411731 174.787676,146.630614 180.395544,147.068263 L181.218,147.124093 L178.018988,160.306126 L177.144374,160.093874 L180.0927,147.9447 L180.037105,147.940648 C174.182206,147.398343 172.041109,144.704041 173.9002,140.064076 L173.994857,139.834313 Z"
          id="路径-38" fill="#000000" fill-rule="nonzero"></path>
        <path
          d="M138.598321,240.284234 C132.709083,241.059376 127.841754,237.386352 123.996335,229.265161 C118.228207,217.083375 129.128782,187.887064 140.126366,175.613437 C151.12395,163.33981 163.801102,158.548966 181.202143,159.394331 C198.603183,160.239696 204.405646,160.239696 223.709691,179.314177 C236.579055,192.030497 244.802337,206.050862 248.37954,221.375272 L282.399625,192.35484 L297.9,208.826724 C285.364667,222.452229 275.562123,231.970037 268.492369,237.38015 C257.887737,245.495318 249.852193,251.042864 243.142699,251.042864 C236.433205,251.042864 233.865957,247.311685 225.059384,235.845271 C219.188335,228.200995 214.790989,220.176046 211.867344,211.770425 C210.420821,216.864022 208.671779,222.474166 206.620218,228.600857 C204.568658,234.727549 202.85476,242.208218 201.478525,251.042864 L136.615809,258.026156 L147.129101,197.499115"
          id="路径-40" fill="#FFFFFF"></path>
        <path
          d="M139.791224,175.313138 C150.648119,163.196524 163.224705,158.194303 180.641618,158.918599 L183.378909,159.049457 C192.109008,159.478749 195.937134,159.95656 200.26802,161.476018 L200.523399,161.566607 C207.144484,163.940651 213.704976,168.795815 224.02598,178.994081 C236.549659,191.368828 244.699275,204.983043 248.466836,219.832116 L248.6466,220.5549 L282.433637,191.734342 L298.514654,208.82326 L297.080326,210.379093 C285.26847,223.151334 275.942794,232.184662 269.095243,237.484011 L267.860839,238.428056 C255.340232,247.952651 249.050363,251.492864 243.142699,251.492864 C240.351293,251.492864 238.248182,250.859192 236.168636,249.372579 L235.789082,249.096209 C233.403106,247.323471 231.858149,245.43624 224.702496,236.119372 C219.183331,228.933259 214.958666,221.409646 212.029802,213.549333 L211.9149,213.2361 L211.776418,213.71502 C210.614279,217.708381 209.275206,222.003541 207.759192,226.600592 L207.04693,228.743744 C205.074585,234.63387 203.413975,241.788211 202.066352,250.205449 L201.870013,251.453316 L136.070254,258.537493 L146.68574,197.422105 L147.572463,197.576125 L137.1609,257.5143 L201.087,250.632 L201.177844,250.062081 C202.484358,241.901858 204.08523,234.914659 205.981584,229.099299 L206.193506,228.45797 C208.122397,222.697612 209.783368,217.395059 211.176407,212.550483 L211.823971,210.275926 L212.292369,211.622593 C215.199866,219.981792 219.573971,227.964325 225.416271,235.57117 L228.15808,239.130138 C233.244709,245.700793 234.526743,247.092512 236.692035,248.640422 C238.614126,250.014475 240.533758,250.592864 243.142699,250.592864 C248.840877,250.592864 255.121348,247.01713 267.769824,237.365939 L268.218894,237.022782 C274.829821,231.963787 283.855633,223.283834 295.288659,210.987624 L297.2844,208.8297 L282.3651,192.9744 L248.109321,222.197264 L247.941321,221.477567 C244.38417,206.239055 236.204461,192.292982 223.393402,179.634273 L222.459157,178.715719 C212.759646,169.228036 206.490927,164.662418 200.219633,162.413794 L199.475248,162.155684 C195.524887,160.834088 191.79678,160.375579 183.837698,159.973439 L181.180307,159.843801 C163.724227,158.995762 151.252765,163.870376 140.461509,175.913736 C128.490655,189.273561 119.13528,217.947518 124.403046,229.072582 C128.111541,236.904602 132.721668,240.466051 138.261816,239.871283 L138.539599,239.838082 L138.657044,240.730386 C132.542576,241.535173 127.510159,237.737569 123.589625,229.45774 C118.135068,217.938189 127.604895,188.913439 139.791224,175.313138 Z"
          id="路径-40" fill="#000000" fill-rule="nonzero"></path>
        <path
          d="M303.943575,157.12849 C306.484866,157.949611 305.968889,163.198629 302.663765,173.081242 L303.170615,172.448774 L303.839537,172.988668 C309.192376,177.343334 311.85,180.366091 311.85,182.244141 C311.85,184.989925 308.496692,191.251717 305.429678,194.346252 C303.442403,196.351358 300.455648,197.623357 296.48127,198.17616 L296.3169,198.1971 L293.818019,204.466613 L292.981981,204.133387 L295.676821,197.372217 L295.940939,197.339474 C299.945838,196.842985 302.891281,195.62891 304.790446,193.712704 C307.705956,190.771033 310.95,184.713275 310.95,182.244141 C310.95,180.757618 308.374311,177.839971 303.260429,173.677946 L302.633988,173.170178 C302.45566,173.702205 302.269295,174.247587 302.074936,174.806357 L301.922316,175.243202 L301.073078,174.945218 L301.376556,174.072045 C304.837116,164.01683 305.499772,158.57713 303.666861,157.984895 C301.813764,157.386137 298.180529,163.643019 293.269906,176.537303 L292.921159,177.458509 L292.078841,177.141491 L292.605742,175.752766 C293.183275,174.243218 293.741782,172.825906 294.281969,171.50052 C292.517908,171.290323 291.357179,171.727444 290.72824,172.780078 C290.379664,173.363477 290.141914,174.1761 289.884087,175.604007 L289.711377,176.629663 C289.634447,177.113966 289.484422,178.072126 289.443356,178.327691 L289.317357,179.092726 C289.234946,179.579359 289.154409,180.025804 289.067904,180.471603 C288.733305,182.195943 288.334743,183.758219 287.808108,185.301556 C286.544526,189.00456 285.268753,191.496449 283.950273,192.793013 L283.803597,192.932158 L283.196403,192.267842 C284.426461,191.143549 285.691116,188.718699 286.956333,185.010903 C287.468522,183.509902 287.857136,181.986618 288.184384,180.300161 L288.308713,179.636298 C288.349367,179.411399 288.389553,179.181258 288.430237,178.940988 L288.856624,176.275357 L288.955609,175.685065 C289.248777,173.998923 289.515263,173.055507 289.955643,172.318458 C290.822774,170.867168 292.409369,170.31929 294.634101,170.639138 C298.686759,160.857596 301.685439,156.398859 303.943575,157.12849 Z"
          id="形状结合" fill="#000000" fill-rule="nonzero"></path>
        <polygon id="路径-45" fill="#FFC09F"
          points="106.63161 406.304267 102.6 419.164771 119.511726 420.3 124.2 410.4"></polygon>
        <polygon id="路径-45" fill="#FFC09F" points="199.8 410.4 198.925732 423 217.8 420.43411 217.8 410.4"></polygon>
        <path
          d="M124.845466,410.088411 L106.327122,405.771215 L101.999653,419.575484 L119.787292,420.769511 L124.845466,410.088411 Z M106.9353,406.8369 L123.5547,410.7105 L119.2356,419.8302 L103.2003,418.7538 L106.9353,406.8369 Z"
          id="路径-45" fill="#000000" fill-rule="nonzero"></path>
        <path
          d="M218.25,409.95 L199.380142,409.95 L198.438543,423.520371 L218.25,420.827074 L218.25,409.95 Z M217.3491,410.85 L217.3491,420.0408 L199.4121,422.4789 L200.2194,410.85 L217.3491,410.85 Z"
          id="路径-45" fill="#000000" fill-rule="nonzero"></path>
        <polygon id="路径-46" fill="#FFFFFF"
          points="101.990497 415.8 92.7 439.2 144.9 439.2 144.9 436.114515 122.585156 425.499521 123.995442 417.287922"></polygon>
        <polygon id="路径-46" fill="#FFFFFF"
          points="198.44028 419.926732 195.3 439.2 243 439.2 243 436.031729 222.095442 425.714904 222.095442 416.7"></polygon>
        <path
          d="M124.523361,416.872592 L101.693375,415.328882 L92.0371666,439.65 L145.35,439.65 L145.35,435.830257 L123.0858,425.2392 L124.523361,416.872592 Z M102.2877,416.2707 L123.4665,417.7035 L122.083933,425.759413 L144.45,436.3983 L144.45,438.75 L93.3624,438.75 L102.2877,416.2707 Z"
          id="路径-46" fill="#000000" fill-rule="nonzero"></path>
        <path
          d="M222.5448,425.4354 L222.545442,416.18445 L198.049663,419.525848 L194.770745,439.65 L243.45,439.65 L243.45,435.751995 L222.5448,425.4354 Z M221.6448,417.2148 L221.645442,425.994638 L242.55,436.3119 L242.55,438.75 L195.8283,438.75 L198.8307,420.327 L221.6448,417.2148 Z"
          id="路径-46" fill="#000000" fill-rule="nonzero"></path>
        <path
          d="M136.675152,253.55671 C139.842332,252.883915 148.098156,252.01682 161.442625,250.955425 C174.787094,249.89403 188.142311,249.042222 201.508276,248.4 C216.519662,288.621151 225.549867,317.871151 228.598889,336.15 C231.647912,354.428849 231.648282,379.317025 228.6,410.814528 L193.968219,414 C194.554705,382.595251 193.198632,358.595251 189.9,342 C186.601368,325.404749 179.580248,307.259514 168.836641,287.564293 C168.423806,315.313469 165.959134,336.758705 161.442625,351.9 C156.926116,367.041295 146.998226,387.141295 131.658956,412.2 L98.1,409.014528 C109.696639,382.889717 117.796639,360.551541 122.4,342 C127.003361,323.448459 131.761745,293.967363 136.675152,253.55671 Z"
          id="路径-44" fill="#0077FF"></path>
        <circle id="椭圆形" fill="#000000" cx="357.75" cy="385.65" r="14.85"></circle>
        <path
          d="M425.04308,248.693243 C425.154575,248.443632 425.44731,248.331666 425.696922,248.443161 C425.946533,248.554656 426.058499,248.847391 425.947004,249.097003 C425.273094,250.605732 423.963767,251.560588 422.071435,251.949391 L421.899673,251.982004 C421.184397,252.106058 420.438755,252.082078 418.336707,251.904991 L416.376725,251.739627 C415.958035,251.707418 415.596462,251.683564 415.237639,251.664848 L415.02224,251.65421 C412.087869,251.517322 410.105867,251.818089 408.920735,252.752229 C407.874475,253.576909 407.310928,255.087723 406.470538,258.700292 L406.179649,259.947235 C405.174519,264.187312 404.236966,266.338414 402.327017,267.576458 C401.997208,267.790243 401.661167,267.979594 401.318781,268.145427 C399.08569,269.227015 397.071768,269.285187 393.94081,268.743193 L392.333741,268.455695 C391.576741,268.325683 391.350615,268.308743 390.948156,268.308743 C389.380759,268.308743 387.793495,268.868303 386.179264,270.000392 C385.955441,270.157363 385.646745,270.103169 385.489773,269.879345 C385.332802,269.655521 385.386996,269.346826 385.61082,269.189854 C387.279054,268.019892 388.955242,267.394757 390.633466,267.32526 L390.948156,267.318743 C391.421887,267.318743 391.665709,267.336063 392.491129,267.478043 L393.765718,267.706558 C396.909811,268.279411 398.810683,268.260203 400.887233,267.254435 C401.192745,267.106462 401.49307,266.937236 401.788526,266.74572 C403.3539,265.731031 404.217393,263.82794 405.130567,260.076063 L405.666781,257.797332 C406.481225,254.415814 407.084404,252.939091 408.307889,251.97472 C409.682912,250.890905 411.743978,250.544481 414.708304,250.65042 L415.068373,250.665285 C415.657607,250.692773 416.22232,250.731791 416.988942,250.795634 L418.647938,250.937383 C420.600833,251.098342 421.251259,251.107226 421.872189,250.979648 C423.467313,250.65191 424.506807,249.893836 425.04308,248.693243 Z"
          id="路径-31" fill="#000000" fill-rule="nonzero"
          transform="translate(405.695083, 259.245083) scale(-1, 1) translate(-405.695083, -259.245083) "></path>
        <path
          d="M40.1430802,40.5932433 C40.2545753,40.3436316 40.5473101,40.231666 40.7969218,40.3431611 C41.0465335,40.4546562 41.1584991,40.747391 41.0470041,40.9970027 C40.3730939,42.5057317 39.0637675,43.4605881 37.1714348,43.8493909 L36.9996728,43.8820036 C36.2843972,44.006058 35.5387554,43.9820776 33.4367071,43.8049913 L31.4767251,43.6396266 C31.0580352,43.6074177 30.6964623,43.583564 30.3376389,43.5648484 L30.1222399,43.5542098 C27.1878685,43.4173224 25.2058669,43.7180891 24.0207348,44.6522295 C22.9744747,45.4769086 22.4109284,46.9877226 21.5705378,50.6002923 L21.2796488,51.8472348 C20.2745194,56.0873116 19.3369655,58.238414 17.4270172,59.4764582 C17.0972079,59.6902433 16.7611674,59.879594 16.4187811,60.0454273 C14.1856904,61.1270147 12.1717677,61.1851868 9.04081011,60.6431932 L7.43374068,60.3556953 C6.67674088,60.2256835 6.45061539,60.208743 6.04815555,60.208743 C4.48075945,60.208743 2.89349512,60.7683032 1.27926427,61.9003918 C1.05544051,62.0573633 0.746744915,62.0031689 0.589773357,61.7793452 C0.432801799,61.5555214 0.486996215,61.2468258 0.710819972,61.0898543 C2.37905414,59.9198921 4.05524217,59.2947567 5.73346614,59.2252597 L6.04815555,59.218743 C6.52188652,59.218743 6.76570947,59.2360631 7.59112872,59.3780429 L8.86571761,59.6065576 C12.0098108,60.1794109 13.9106826,60.1602034 15.9872333,59.1544354 C16.2927446,59.0064624 16.5930696,58.8372365 16.8885256,58.6457195 C18.4538999,57.6310311 19.3173927,55.7279396 20.2305666,51.9760634 L20.7667807,49.6973322 C21.5812246,46.3158142 22.1844043,44.8390911 23.4078894,43.8747203 C24.782912,42.7909052 26.8439783,42.4444806 29.8083042,42.5504195 L30.1683729,42.5652853 C30.7576065,42.5927728 31.3223202,42.6317912 32.0889424,42.6956344 L33.7479384,42.8373827 C35.7008335,42.9983416 36.3512588,43.0072258 36.9721893,42.879648 C38.567313,42.5519104 39.6068066,41.7938358 40.1430802,40.5932433 Z"
          id="路径-31" fill="#000000" fill-rule="nonzero"
          transform="translate(20.795083, 51.145083) scale(-1, 1) translate(-20.795083, -51.145083) "></path>
        <path
          d="M427.35,92.71 C421.087091,92.71 416.01,97.7870909 416.01,104.05 C416.01,110.312909 421.087091,115.39 427.35,115.39 C433.612909,115.39 438.69,110.312909 438.69,104.05 C438.69,97.7870909 433.612909,92.71 427.35,92.71 Z M427.35,93.7 C433.066147,93.7 437.7,98.3338528 437.7,104.05 C437.7,109.766147 433.066147,114.4 427.35,114.4 C421.633853,114.4 417,109.766147 417,104.05 C417,98.3338528 421.633853,93.7 427.35,93.7 Z"
          id="椭圆形" fill="#000000" fill-rule="nonzero"></path>
        <path
          d="M39.55,295.11 C34.7782598,295.11 30.91,298.97826 30.91,303.75 C30.91,308.52174 34.7782598,312.39 39.55,312.39 C44.3217402,312.39 48.19,308.52174 48.19,303.75 C48.19,298.97826 44.3217402,295.11 39.55,295.11 Z M39.55,296.1 C43.7749783,296.1 47.2,299.525022 47.2,303.75 C47.2,307.974978 43.7749783,311.4 39.55,311.4 C35.3250217,311.4 31.9,307.974978 31.9,303.75 C31.9,299.525022 35.3250217,296.1 39.55,296.1 Z"
          id="椭圆形" fill="#000000" fill-rule="nonzero"></path>
        <path
          d="M270.45,329.31 C266.672372,329.31 263.61,332.372372 263.61,336.15 C263.61,339.927628 266.672372,342.99 270.45,342.99 C274.227628,342.99 277.29,339.927628 277.29,336.15 C277.29,332.372372 274.227628,329.31 270.45,329.31 Z M270.45,330.3 C273.680866,330.3 276.3,332.919134 276.3,336.15 C276.3,339.380866 273.680866,342 270.45,342 C267.219134,342 264.6,339.380866 264.6,336.15 C264.6,332.919134 267.219134,330.3 270.45,330.3 Z"
          id="椭圆形" fill="#000000" fill-rule="nonzero"></path>
        <rect id="矩形" fill="#000000" x="31" y="438.3" width="420" height="1"></rect>
        <polygon id="路径-39" fill="#000000" fill-rule="nonzero"
          points="196.2 155.7 196.2 160.2 195.3 160.2 195.3 155.7"></polygon>
      </g>
    </g>
  </g>
</svg>
