<?xml version="1.0" encoding="UTF-8"?>
<svg width="460px" height="520px" viewBox="0 0 460 520" version="1.1" xmlns="http://www.w3.org/2000/svg"
>
  <title>编组</title>
  <g id="用户端新" stroke="none" stroke-width="1" fill="none" fill-rule="evenodd">
    <g id="1.00" transform="translate(-180.000000, -190.000000)">
      <g id="编组" transform="translate(180.000000, 190.000000)">
        <rect id="矩形" fill="#D8D8D8" opacity="0" x="0" y="0" width="460" height="520"></rect>
        <polygon id="路径-21" fill="#FFC09F"
          points="205.08523 454.998894 186.527983 453.55492 188.507786 444.31397 207.413685 446.311316"></polygon>
        <polygon id="路径-23" fill="#FFFFFF"
          points="183.364932 453.55492 206.809668 454.998894 203.647236 474.963582 155.280461 474.963582 155.280461 472.401091 183.364932 458.764207"></polygon>
        <polygon id="路径-25" fill="#FFC09F"
          points="302.647739 451.084607 286.590143 453.018107 283.840091 440.968918 301.153016 438.037453"></polygon>
        <path
          d="M208.048125,445.87556 L188.11309,443.769489 L185.919338,454.009071 L205.460632,455.529616 L208.048125,445.87556 Z M188.902,444.857975 L206.778,446.745975 L204.71,454.467975 L187.136,453.099975 L188.902,444.857975 Z"
          id="路径-21" fill="#000000" fill-rule="nonzero"></path>
        <path
          d="M303.201072,451.521592 L301.589719,437.456393 L283.23488,440.564277 L286.20287,453.568351 L303.201072,451.521592 Z M300.716,438.617975 L302.093,450.646975 L286.977,452.466975 L284.445,441.372975 L300.716,438.617975 Z"
          id="路径-25" fill="#000000" fill-rule="nonzero"></path>
        <polygon id="路径-26" fill="#FFFFFF"
          points="282.539336 453.55492 305.246619 450.644729 310.218452 474.963582 261.759897 474.963582 261.759897 472.714068 285.31276 460.678196"></polygon>
        <path
          d="M182.864932,453.023177 L182.864,458.450975 L154.780461,472.088047 L154.780461,475.463582 L204.074269,475.463582 L207.389594,454.533665 L182.864932,453.023177 Z M183.864,454.085975 L206.229,455.462975 L203.22,474.462975 L155.78,474.462975 L155.78,472.712975 L183.864932,459.077251 L183.864,454.085975 Z"
          id="路径-23" fill="#000000" fill-rule="nonzero"></path>
        <path
          d="M310.831016,475.463582 L305.643505,450.089775 L281.841339,453.140286 L284.682,460.437975 L261.259897,472.408074 L261.259897,475.463582 L310.831016,475.463582 Z M304.849,451.198975 L309.605,474.462975 L262.259,474.462975 L262.259,473.019975 L285.942622,460.917829 L283.237,453.968975 L304.849,451.198975 Z"
          id="路径-26" fill="#000000" fill-rule="nonzero"></path>
        <path
          d="M305.563606,377.995051 L319.930449,439.815677 C320.430517,441.967473 319.091526,444.117234 316.93973,444.617302 C316.75805,444.659524 316.573639,444.688986 316.387847,444.705473 L268.50043,448.954996 C266.344055,449.146352 264.42677,447.587425 264.174181,445.437362 L255.810952,374.248652 L255.810952,374.248652 L305.563606,377.995051 Z"
          id="路径-18" fill="#0077FF"></path>
        <path
          d="M238.796699,367.69438 L225.298279,448.175994 C224.932865,450.354702 222.870447,451.824667 220.691739,451.459253 C220.685303,451.458174 220.678869,451.457078 220.672439,451.455967 L169.024682,442.533455 C166.847789,442.157381 165.387936,440.087793 165.76401,437.9109 C165.79296,437.743322 165.832568,437.577761 165.882592,437.415224 L192.813747,349.911236 L192.813747,349.911236 L238.796699,367.69438 Z"
          id="路径-20" fill="#0077FF"></path>
        <path
          d="M305.967471,377.524047 L255.243589,373.704514 L263.677596,445.495701 C263.961758,447.914522 266.118704,449.668314 268.544627,449.453038 L316.432043,445.203516 C316.641059,445.184968 316.848521,445.151823 317.052912,445.104323 C319.473683,444.541747 320.980047,442.123266 320.41747,439.702495 L305.967471,377.524047 Z M256.378,374.793 L305.159,378.465 L319.443427,439.928859 C319.880987,441.81168 318.70937,443.692721 316.826549,444.130281 C316.667578,444.167225 316.506219,444.193004 316.343651,444.20743 L268.456234,448.456953 C266.569405,448.62439 264.891781,447.260329 264.670766,445.379023 L256.378,374.793 Z"
          id="路径-18" fill-rule="nonzero"></path>
        <path
          d="M239.357237,367.375071 L192.49369,349.251371 L165.404713,437.268147 C165.348436,437.451001 165.303877,437.637257 165.271308,437.825782 C164.848225,440.274787 166.49056,442.603074 168.939564,443.026157 L220.609034,451.952366 C223.060081,452.363456 225.380301,450.709746 225.791392,448.258699 L239.357237,367.375071 Z M193.133,350.57 L238.236,368.013 L224.805167,448.093289 C224.496088,449.936113 222.799472,451.199441 220.964691,450.992798 L220.757556,450.963266 L169.1098,442.040753 C167.205018,441.711689 165.927647,439.900799 166.256712,437.996018 C166.282043,437.849387 166.3167,437.704521 166.360471,437.562302 L193.133,350.57 Z"
          id="路径-20" fill-rule="nonzero"></path>
        <rect id="矩形" stroke="#000000" fill="#979797" x="99.5" y="475.508975" width="259" height="1"></rect>
        <path
          d="M300.055407,224.184221 L133.364493,172.402157 C131.256787,171.747404 129.017049,172.923525 128.359494,175.030359 C126.249272,181.791604 124.666604,186.862538 123.611493,190.243161 M123.611493,190.243161 C118.028254,208.132101 100.294225,264.952699 83.8610501,317.605303 C83.2052578,319.713953 84.3800501,321.956294 86.4870076,322.617501 L297.11081,388.482839 C299.219198,389.14129 301.462658,387.967004 302.123142,385.859252 L346.855264,242.919793 C347.515048,240.811481 346.340785,238.567496 344.232473,237.907711 L300.055407,224.184221"
          id="形状" fill="#FFFFFF"></path>
        <path
          d="M133.216162,172.879648 C131.371919,172.30674 129.412148,173.335846 128.836788,175.179325 L84.3384934,317.753789 C83.7836896,319.537718 84.7259899,321.431061 86.4546373,322.077881 L86.6362388,322.140291 L297.259861,388.005572 C299.043342,388.562554 300.937302,387.620889 301.583609,385.891594 L301.645962,385.709921 L346.378084,242.770463 C346.936152,240.987182 345.994631,239.092969 344.265769,238.447468 L344.084142,238.385202 L133.216162,172.879648 Z M133.303267,171.864992 L133.512824,171.924666 L344.381804,237.430531 C346.683894,238.150958 347.996083,240.550316 347.392608,242.859496 L347.332443,243.069124 L302.600265,386.008763 C301.879118,388.310105 299.480468,389.622207 297.171215,389.020087 L296.961579,388.960049 L86.3372961,323.094562 C83.967344,322.350821 82.6459573,319.828673 83.3837566,317.456337 L127.882201,174.881393 C128.600192,172.580917 130.994977,171.266806 133.303267,171.864992 Z"
          id="形状" fill="#000000" fill-rule="nonzero"></path>
        <path
          d="M132.761931,173.008975 C272.846156,215.856545 343.686777,237.937618 345.283791,239.252196 C346.880806,240.566774 347.21414,241.889165 346.283791,243.219368 L339.069619,266.383162 L122,199.119949 L128.8382,175.345636 L131.222691,173.008975 L132.761931,173.008975 Z"
          id="路径-22" fill="#000000" opacity="0.04"></path>
        <polygon id="路径-27" fill="#000000" fill-rule="nonzero"
          points="128.118081 200.067441 339.219243 266.273228 338.919994 267.227403 127.818832 201.021616"></polygon>
        <path
          d="M132.557621,306.754359 L137.778324,287.439906 L137.907231,287.439906 L143.170902,306.754359 L150.002934,306.754359 L157.178715,275.473109 L149.831059,275.473109 L146.049809,295.754359 L145.920902,295.754359 L140.592777,275.473109 L135.114262,275.473109 L129.807621,295.797328 L129.678715,295.775844 L125.897465,275.473109 L118.528324,275.473109 L125.72559,306.754359 L132.557621,306.754359 Z M170.188481,307.205531 C172.05046,307.205531 173.826501,306.95488 175.516606,306.453578 C177.20671,305.952276 178.553064,305.336391 179.555668,304.605922 L179.555668,304.605922 L177.815434,300.180141 C176.626632,300.681443 175.570316,301.046677 174.646488,301.275844 C173.72266,301.505011 172.566085,301.619594 171.176762,301.619594 C169.701501,301.619594 168.569991,301.243617 167.782231,300.491664 C166.99447,299.739711 166.543298,298.755011 166.428715,297.537563 L166.428715,297.537563 L166.471684,297.408656 L179.791996,297.408656 L179.791996,293.605922 C179.791996,290.340297 178.92904,287.769333 177.203129,285.893031 C175.477218,284.016729 173.045902,283.078441 169.909184,283.078441 C166.342777,283.064255 163.617843,284.174281 161.734379,286.408656 C159.850915,288.643031 158.909184,291.536261 158.909184,295.088344 L158.909184,295.088344 L158.909184,295.90475 C158.909184,299.170375 159.908207,301.870245 161.906254,304.004359 C163.904301,306.138474 166.665043,307.205531 170.188481,307.205531 Z M172.702152,292.875453 L166.428715,292.875453 L166.385746,292.768031 C166.471684,291.507615 166.790369,290.508591 167.341801,289.770961 C167.893233,289.033331 168.749027,288.664516 169.909184,288.664516 C170.926111,288.664516 171.645837,288.972458 172.068363,289.588344 C172.490889,290.204229 172.702152,291.113734 172.702152,292.316859 L172.702152,292.316859 L172.702152,292.875453 Z M191.469731,306.754359 L191.469731,273.238734 L184.186527,273.238734 L184.186527,306.754359 L191.469731,306.754359 Z M206.864262,307.205531 C209.700199,307.205531 212.024093,306.407029 213.835941,304.810024 C215.64779,303.213018 216.525069,301.146938 216.467777,298.611781 L216.467777,298.611781 L216.424809,298.482875 L209.807621,298.482875 C209.807621,299.499802 209.564132,300.27682 209.077152,300.81393 C208.590173,301.351039 207.852543,301.619594 206.864262,301.619594 C205.43197,301.619594 204.440108,301.068162 203.888676,299.965297 C203.337244,298.862432 203.061527,297.337042 203.061527,295.389125 L203.061527,295.389125 L203.061527,294.894984 C203.061527,292.990037 203.337244,291.475388 203.888676,290.351039 C204.440108,289.22669 205.417647,288.664516 206.821293,288.664516 C207.809574,288.664516 208.554366,289.011846 209.055668,289.706508 C209.55697,290.401169 209.807621,291.299932 209.807621,292.402797 L209.807621,292.402797 L216.424809,292.402797 L216.467777,292.273891 C216.525069,289.42363 215.669275,287.178513 213.900395,285.538539 C212.131514,283.898565 209.771814,283.078578 206.821293,283.078578 C203.297856,283.078578 200.583663,284.174281 198.678715,286.365688 C196.773767,288.557094 195.821293,291.400193 195.821293,294.894984 L195.821293,294.894984 L195.821293,295.389125 C195.821293,298.89824 196.777348,301.744919 198.689457,303.929164 C200.601566,306.113409 203.326501,307.205531 206.864262,307.205531 Z M230.745121,307.205531 C234.268559,307.205531 237.018559,306.109828 238.995121,303.918422 C240.971684,301.727016 241.959965,298.876755 241.959965,295.367641 L241.959965,295.367641 L241.959965,294.916469 C241.959965,291.421677 240.971684,288.574997 238.995121,286.37643 C237.018559,284.177862 234.254236,283.078578 230.702152,283.078578 C227.164392,283.078578 224.407231,284.177862 222.430668,286.37643 C220.454106,288.574997 219.465824,291.421677 219.465824,294.916469 L219.465824,294.916469 L219.465824,295.367641 C219.465824,298.876755 220.454106,301.727016 222.430668,303.918422 C224.407231,306.109828 227.178715,307.205531 230.745121,307.205531 Z M230.745121,301.619594 C229.284184,301.619594 228.249353,301.064581 227.640629,299.954555 C227.031905,298.844529 226.727543,297.315557 226.727543,295.367641 L226.727543,295.367641 L226.727543,294.916469 C226.727543,293.040167 227.031905,291.529099 227.640629,290.383266 C228.249353,289.237432 229.269861,288.664516 230.702152,288.664516 C232.148767,288.664516 233.180017,289.233852 233.795902,290.372524 C234.411788,291.511195 234.719731,293.025844 234.719731,294.916469 L234.719731,294.916469 L234.719731,295.367641 C234.719731,297.301234 234.411788,298.826625 233.795902,299.943813 C233.180017,301.061 232.16309,301.619594 230.745121,301.619594 Z M253.422856,306.754359 L253.422856,290.082484 C253.795251,289.638474 254.250004,289.291143 254.787113,289.040492 C255.324223,288.789841 255.922205,288.664516 256.581059,288.664516 C257.540694,288.664516 258.249678,288.972458 258.708012,289.588344 C259.166345,290.204229 259.395512,291.350063 259.395512,293.025844 L259.395512,293.025844 L259.395512,306.754359 L266.657231,306.754359 L266.657231,291.242641 C266.657231,291.070766 266.650069,290.89531 266.635746,290.716274 C266.621423,290.537237 266.614262,290.325974 266.614262,290.082484 C266.986658,289.638474 267.44141,289.291143 267.97852,289.040492 C268.515629,288.789841 269.135095,288.664516 269.836918,288.664516 C270.767908,288.664516 271.46615,288.976039 271.931645,289.599086 C272.397139,290.222133 272.629887,291.364386 272.629887,293.025844 L272.629887,293.025844 L272.629887,306.754359 L279.91309,306.754359 L279.91309,293.025844 C279.91309,289.645636 279.264978,287.142706 277.968754,285.517055 C276.67253,283.891404 274.892908,283.078578 272.629887,283.078578 C271.125981,283.078578 269.811853,283.411586 268.687504,284.077602 C267.563155,284.743617 266.642908,285.685349 265.926762,286.902797 C265.396814,285.613734 264.609053,284.654099 263.563481,284.023891 C262.517908,283.393682 261.271814,283.078578 259.825199,283.078578 C258.392908,283.078578 257.121749,283.38294 256.011723,283.991664 C254.901697,284.600388 253.981449,285.463344 253.250981,286.580531 L253.250981,286.580531 L252.993168,283.508266 L246.161137,283.508266 L246.161137,306.754359 L253.422856,306.754359 Z M295.372074,307.205531 C297.234053,307.205531 299.010095,306.95488 300.700199,306.453578 C302.390303,305.952276 303.736658,305.336391 304.739262,304.605922 L304.739262,304.605922 L302.999027,300.180141 C301.810225,300.681443 300.75391,301.046677 299.830082,301.275844 C298.906254,301.505011 297.749678,301.619594 296.360356,301.619594 C294.885095,301.619594 293.753585,301.243617 292.965824,300.491664 C292.178064,299.739711 291.726892,298.755011 291.612309,297.537563 L291.612309,297.537563 L291.655277,297.408656 L304.97559,297.408656 L304.97559,293.605922 C304.97559,290.340297 304.112634,287.769333 302.386723,285.893031 C300.660811,284.016729 298.229496,283.078441 295.092777,283.078441 C291.526371,283.064255 288.801436,284.174281 286.917973,286.408656 C285.034509,288.643031 284.092777,291.536261 284.092777,295.088344 L284.092777,295.088344 L284.092777,295.90475 C284.092777,299.170375 285.091801,301.870245 287.089848,304.004359 C289.087895,306.138474 291.848637,307.205531 295.372074,307.205531 Z M297.885746,292.875453 L291.612309,292.875453 L291.56934,292.768031 C291.655277,291.507615 291.973962,290.508591 292.525395,289.770961 C293.076827,289.033331 293.932621,288.664516 295.092777,288.664516 C296.109705,288.664516 296.829431,288.972458 297.251957,289.588344 C297.674483,290.204229 297.885746,291.113734 297.885746,292.316859 L297.885746,292.316859 L297.885746,292.875453 Z"
          id="Welcome" fill="#000000" fill-rule="nonzero"
          transform="translate(211.751957, 290.222133) rotate(18.000000) translate(-211.751957, -290.222133) "></path>
        <path
          d="M143,183.298652 C147.418278,183.298652 151,186.880374 151,191.298652 C151,195.71693 147.418278,199.298652 143,199.298652 C138.581722,199.298652 135,195.71693 135,191.298652 C135,186.880374 138.581722,183.298652 143,183.298652 Z M143,184.298652 C139.134007,184.298652 136,187.432659 136,191.298652 C136,195.164645 139.134007,198.298652 143,198.298652 C146.865993,198.298652 150,195.164645 150,191.298652 C150,187.432659 146.865993,184.298652 143,184.298652 Z"
          id="椭圆形" fill="#000000" fill-rule="nonzero"></path>
        <path
          d="M172,191.298652 C176.418278,191.298652 180,194.880374 180,199.298652 C180,203.71693 176.418278,207.298652 172,207.298652 C167.581722,207.298652 164,203.71693 164,199.298652 C164,194.880374 167.581722,191.298652 172,191.298652 Z M172,192.298652 C168.134007,192.298652 165,195.432659 165,199.298652 C165,203.164645 168.134007,206.298652 172,206.298652 C175.865993,206.298652 179,203.164645 179,199.298652 C179,195.432659 175.865993,192.298652 172,192.298652 Z"
          id="椭圆形" fill="#000000" fill-rule="nonzero"></path>
        <circle id="椭圆形" fill="#000000" cx="201" cy="208.298652" r="8"></circle>
        <path
          d="M296.648748,267.383162 L309.178021,275.048669 C308.176786,280.323013 306.639683,285.055442 304.566711,289.245956 C301.457253,295.531726 296.938064,299.779333 295.607943,300.373865 C294.721195,300.770219 295.06813,299.134401 296.648748,295.466409 C292.758831,299.469865 290.408126,301.441675 289.596633,301.381841 C288.785141,301.322006 289.241159,298.973109 290.964688,294.335151 C286.906766,297.812772 284.498534,299.351705 283.739991,298.951952 C282.981448,298.552198 283.567165,296.378822 285.497141,292.431823 C282.084455,294.924755 280.01263,295.690711 279.281667,294.729691 C278.550704,293.76867 281.68609,288.627492 288.687826,279.306156 C282.514252,280.40513 279.427465,280.184304 279.427465,278.643677 C279.427465,276.332736 284.446675,276.71784 288.687826,273.944671 C291.515259,272.095891 294.1689,269.908722 296.648748,267.383162 Z"
          id="路径-22" fill="#FFC09F"></path>
        <path
          d="M180,186.253878 C194.315942,173.318204 206.892408,164.480895 217.729401,159.741951 C228.566393,155.003006 238.310561,152.952688 246.961904,153.590999 L265.151039,155.032159 C295.094138,159.886922 314.772438,174.642419 324.185937,199.298652 C333.599436,223.954884 331.201931,251.106289 316.993421,280.752865 L290.920303,264.298652 C297.677039,251.123299 301.055407,240.008081 301.055407,230.952998 C301.055407,221.897914 297.677039,212.911321 290.920303,203.993219 L289.29527,220.18952 L180,186.253878 Z"
          id="形状结合" fill="#FFFFFF"></path>
        <path
          d="M246.733626,159.741951 L249.184108,145.974728 C241.592502,142.352943 238.130032,137.33453 238.796699,130.919489 C239.463366,124.504448 244.833288,120.398766 254.906467,118.602444 L267.737407,129.919489 C270.775973,130.366351 272.295256,132.207928 272.295256,135.444217 C272.295256,138.680507 269.739438,140.806498 264.627804,141.82219 L265.151039,155.032159 L246.733626,159.741951 Z"
          id="路径-19" fill="#FFC09F"></path>
        <path
          d="M240.119033,125.643782 C241.64939,125.643837 243.005229,125.381533 244.186547,124.856871 C245.367866,124.33221 246.262624,123.594951 246.870819,122.645097 C247.972844,124.908312 249.906043,126.632687 252.670414,127.818221 C255.434786,129.003755 258.637747,129.482085 262.2793,129.25321 L262.2793,133.576821 C263.217567,132.741037 264.000401,132.080527 264.627804,131.595289 C265.255206,131.11005 266.291741,130.55145 267.737407,129.919489 C264.657912,121.665038 260.05485,117.412454 253.92822,117.161736 C247.80159,116.911019 243.198528,119.738367 240.119033,125.643782 Z"
          id="路径-28" stroke="#000000" fill="#000000"></path>
        <path
          d="M249.703527,145.786662 L256.924428,145.258874 C255.544168,147.179019 254.26581,148.536786 253.089355,149.332177 C251.9129,150.127569 250.387212,150.665592 248.512293,150.946246 L249.703527,145.786662 Z"
          id="路径-29" stroke="#000000" fill="#000000"></path>
        <path
          d="M250.838696,116.849559 C258.88943,115.705783 264.547638,119.784515 267.716317,128.951541 L267.856534,129.365404 L266.907487,129.680537 C263.909654,120.652304 258.63408,116.752102 250.979354,117.839617 C241.073488,119.246953 237.275262,128.423579 240.149663,137.002971 C241.579003,141.269208 244.492488,144.051254 248.932656,145.38218 L249.316982,145.492707 L249.756212,145.613785 L247.366,159.038975 L265.227726,153.904323 L265.504049,154.865388 L246.100778,160.444161 L248.612,146.329975 L248.279817,146.226254 C243.861166,144.800011 240.86569,141.944847 239.329558,137.688879 L239.201465,137.320651 C236.148813,128.209223 240.226573,118.357233 250.838696,116.849559 Z"
          id="路径-4" fill="#000000" fill-rule="nonzero"></path>
        <path
          d="M216.339894,159.286771 C228.279134,153.859573 238.562808,151.568068 247.195766,152.426124 L247.701683,152.480231 L247.587867,153.473733 C239.055153,152.496227 228.775389,154.73246 216.753714,160.19713 C204.972853,165.552334 193.194498,173.819288 181.420289,185.000635 L180.635348,185.750376 L179.942567,185.029227 C192.055674,173.392606 204.187533,164.810847 216.339894,159.286771 Z"
          id="路径-6" fill="#000000" fill-rule="nonzero"></path>
        <path
          d="M120.358035,194.670556 C118.909215,194.213391 118.045122,194.564609 117.765758,195.724209 C117.486394,196.883808 117.898523,198.408623 119.002146,200.298652 C117.778004,200.298652 116.942643,200.595933 116.496061,201.190495 C116.049479,201.785056 116.432878,203.344551 117.646257,205.868978 C115.440694,205.868978 114.337913,206.345536 114.337913,207.298652 C114.337913,208.728326 115.109174,210.187253 118.265758,211.829759 C121.422343,213.472266 123.537257,212.657158 124.18118,212.329759 C124.610462,212.111494 124.152521,210.917253 122.807357,208.747036 C125.055241,209.459598 126.179184,209.459598 126.179184,208.747036 C126.179184,208.034473 125.513182,206.536031 124.18118,204.251708 C126.045592,204.797832 127.183413,204.797832 127.594644,204.251708 C128.005875,203.705583 127.534055,202.054565 126.179184,199.298652 C127.739025,199.696342 128.732673,199.499767 129.160127,198.708926 C129.801307,197.522666 128.518946,195.062564 126.179184,192.702755 C123.839421,190.342945 121.354895,189.819976 120.358035,190.243161 C119.693461,190.525285 119.693461,192.001083 120.358035,194.670556 Z"
          id="路径-36" fill="#FFC09F"></path>
        <path
          d="M119.507385,190.236989 C118.399662,191.635138 119.462314,194.758852 121.809006,196.905909 C124.413885,199.289188 128.555629,200.835403 129.6718,199.426591 C130.799758,198.002902 128.98061,194.161372 126.135959,191.558718 C123.507288,189.153671 120.715595,188.712007 119.507385,190.236989 Z M125.460931,192.296511 C127.955313,194.578693 129.557051,197.961113 128.887987,198.805594 C128.306905,199.539026 124.694299,198.190352 122.484033,196.168116 C120.475048,194.330037 119.593481,191.738632 120.291198,190.857986 C121.056341,189.892235 123.204568,190.232098 125.460931,192.296511 Z"
          id="路径-13" fill="#000000" fill-rule="nonzero"></path>
        <path
          d="M117.591915,194.870686 C118.357961,193.591069 119.537315,193.591069 120.766552,194.766072 C120.966168,194.956881 120.973308,195.273383 120.782499,195.472999 C120.59169,195.672615 120.275188,195.679754 120.075572,195.488945 C119.269373,194.718316 118.84863,194.718316 118.449917,195.384331 C117.621519,196.768102 118.44397,199.332216 120.744209,201.280385 C123.131149,203.301986 126.364167,204.518934 127.406223,204.059556 C127.495324,204.020276 127.528187,203.804253 127.348908,203.234567 C127.118515,202.502457 126.57101,201.448963 125.708371,200.090292 C125.560357,199.857169 125.629353,199.548196 125.862476,199.400182 C126.0956,199.252169 126.404573,199.321164 126.552586,199.554288 L126.875281,200.071431 C128.573513,202.844775 129.00096,204.449392 127.809605,204.974588 C126.319041,205.631685 122.74706,204.287147 120.097916,202.043475 C117.46111,199.810252 116.475103,196.736228 117.591915,194.870686 Z"
          id="路径-14" fill="#000000" fill-rule="nonzero"></path>
        <path
          d="M115.677012,202.197561 C115.565992,200.388497 116.783509,199.702925 118.894555,200.216993 C119.162857,200.282328 119.327394,200.552794 119.262059,200.821096 C119.196724,201.089398 118.926258,201.253935 118.657956,201.1886 C117.127875,200.816005 116.611938,201.106525 116.675134,202.136308 C116.779653,203.839434 117.696457,205.198648 119.487542,206.691875 C121.037718,207.984257 124.758516,209.423985 125.599171,209.043644 C125.69601,208.99983 125.740264,208.751299 125.584036,208.149296 C125.386878,207.389578 124.894633,206.296883 124.108278,204.886363 C123.973814,204.64517 124.060335,204.34064 124.301529,204.206176 C124.542722,204.071713 124.847252,204.158234 124.981715,204.399427 L125.282255,204.948721 C126.811723,207.801894 127.160045,209.435038 126.011379,209.954733 C124.713831,210.541788 120.664252,208.974841 118.847192,207.459958 C116.865205,205.807576 115.801803,204.231023 115.677012,202.197561 Z"
          id="路径-15" fill="#000000" fill-rule="nonzero"></path>
        <path
          d="M113.473832,207.055682 C113.473832,205.774256 114.645825,205.261914 116.677324,205.388384 C116.952933,205.405542 117.162449,205.642877 117.145291,205.918485 C117.128133,206.194094 116.890799,206.40361 116.61519,206.386452 C115.083456,206.291094 114.473832,206.557594 114.473832,207.055682 C114.473832,208.36078 115.956256,210.366267 117.989317,211.382521 C120.408659,212.591865 123.312265,213.038609 124.169308,212.348251 C124.521202,212.064797 124.068768,211.3056 122.3129,209.998311 C122.091405,209.833402 122.045533,209.520161 122.210442,209.298666 C122.37535,209.077172 122.688592,209.0313 122.910086,209.196208 C125.152288,210.865585 125.9475,212.199973 124.796617,213.127022 C123.530435,214.146945 120.283793,213.647422 117.5422,212.276997 C115.194516,211.103474 113.473832,208.775658 113.473832,207.055682 Z"
          id="路径-16" fill="#000000" fill-rule="nonzero"></path>
        <path d="" id="路径-17" stroke="#979797"></path>
        <polygon id="路径-7" fill="#000000" fill-rule="nonzero"
          points="290.423226 203.93924 291.417381 204.047198 289.792348 219.011691 288.798192 218.903733"></polygon>
        <polygon id="路径-8" fill="#000000" fill-rule="nonzero"
          points="216.267627 182.74663 217.2622 182.850674 215.849931 196.350674 214.855359 196.24663"></polygon>
        <path
          d="M264.37334,130.830002 C268.977768,128.10777 271.957223,129.356329 272.890497,134.426358 C273.788851,139.306683 271.165193,141.974002 265.293608,142.296197 L265.156,142.301975 L265.841,153.940975 L266.262332,153.994887 C293.468234,157.571315 312.500033,171.370838 323.301819,195.359943 L323.629915,196.097487 C334.362957,220.520315 332.511918,248.74069 318.10357,280.731144 L317.66311,281.701706 L317.421754,282.229564 L290.206892,264.49831 L290.419195,264.095145 C296.712878,252.143379 299.855927,240.806974 299.855927,230.083813 C299.855927,219.579513 295.144667,208.61614 285.699115,197.191734 L285.222892,196.620129 L285.988796,195.977174 C295.892149,207.774298 300.855927,219.143864 300.855927,230.083813 C300.855927,240.752968 297.800814,251.994479 291.697712,263.806357 L291.514,264.156975 L316.993,280.755975 L317.190835,280.322591 C331.346956,248.89345 333.28539,221.205643 323.032105,197.232528 L322.714421,196.499817 C312.114451,172.379792 293.272145,158.553394 266.129865,154.986074 L264.891192,154.830222 L264.098328,141.335168 L264.615408,141.322344 C270.384907,141.179259 272.713749,138.989963 271.90702,134.607393 C271.117723,130.319518 268.983929,129.350676 265.107825,131.559835 L264.882268,131.690811 L264.37334,130.830002 Z"
          id="路径-5" fill="#000000" fill-rule="nonzero"></path>
        <path
          d="M295.383144,268.006888 C295.544281,267.782635 295.856702,267.731469 296.080955,267.892605 C296.305208,268.053742 296.356374,268.366162 296.195237,268.590416 C295.075794,270.14834 292.868966,271.972817 289.564896,274.088519 C288.348062,274.867697 287.087902,275.470223 285.661476,275.998682 C285.214814,276.16416 284.773475,276.315298 284.245708,276.485926 L282.524837,277.032778 L282.399242,277.07428 C280.616394,277.667818 279.923096,278.144733 279.751874,278.98174 C279.649756,279.480939 280.065641,279.798722 281.343805,279.934653 C282.68468,280.077254 284.745744,279.934778 287.512311,279.503325 L288.363431,279.365216 L289.643126,279.149864 L288.095969,281.112836 C284.944055,285.139861 282.661902,288.303615 281.251975,290.599175 L280.969457,291.068038 C279.80433,293.041086 279.403884,294.245455 279.616465,294.459113 C280.564272,295.411724 283.819935,293.408696 286.056973,290.68381 L288.297028,287.948715 C288.780742,287.35661 289.255071,286.774968 289.720016,286.203789 C289.894344,285.989629 290.209276,285.957339 290.423435,286.131667 C290.637595,286.305995 290.669885,286.620927 290.495557,286.835087 L287.591155,290.39031 L286.829874,291.318336 C284.218678,294.498975 280.513543,296.778539 278.907573,295.16443 C277.70187,293.952617 280.183922,289.680005 286.494163,281.54079 L287.263,280.552975 L287.234951,280.557243 C284.741506,280.929055 282.819952,281.060857 281.459586,280.949804 L281.238053,280.929046 C279.454754,280.739394 278.518032,280.023632 278.772163,278.781326 C279.028401,277.52872 279.90694,276.879532 281.826988,276.212618 L282.347721,276.038744 L283.615223,275.637832 C284.280696,275.426463 284.795249,275.253179 285.314073,275.060966 C286.677497,274.555848 287.874313,273.983609 289.025644,273.246375 C292.231989,271.193249 294.354442,269.438529 295.383144,268.006888 Z"
          id="路径-9" fill="#000000" fill-rule="nonzero"></path>
        <path
          d="M293.870721,289.240664 C294.011275,289.002968 294.317906,288.924218 294.555602,289.064771 C294.793298,289.205325 294.872048,289.511956 294.731494,289.749652 C293.79657,291.330743 292.50606,293.025792 290.860107,294.836977 L290.473962,295.257005 C286.870775,299.132299 284.490602,300.767895 283.010822,299.432124 C281.853264,298.387218 282.769239,295.899273 285.528755,291.723127 C285.680991,291.492739 285.991169,291.429384 286.221558,291.58162 C286.451946,291.733856 286.515301,292.044035 286.363065,292.274423 L285.972466,292.874542 C283.843403,296.198028 283.144126,298.205297 283.680885,298.68982 C284.474061,299.405805 286.625818,297.927171 289.741611,294.576077 C291.527348,292.655485 292.903658,290.876107 293.870721,289.240664 Z"
          id="路径-10" fill="#000000" fill-rule="nonzero"></path>
        <path
          d="M297.447843,290.975265 C297.548516,290.718128 297.838578,290.591288 298.095715,290.691961 C298.352853,290.792633 298.479693,291.082695 298.37902,291.339833 C297.41598,293.799628 296.185503,295.940017 294.687024,297.759024 L294.23655,298.296507 C291.94849,300.976732 290.265614,302.153272 288.940398,301.651857 C287.696266,301.181121 288.056968,299.240144 289.65083,295.65155 C289.76292,295.39918 290.058372,295.285461 290.310742,295.39755 C290.563112,295.509639 290.676832,295.805092 290.564743,296.057462 L290.325835,296.6068 C289.230424,299.182354 288.987998,300.600681 289.294279,300.716566 C290.09864,301.020909 291.694229,299.81923 293.915192,297.123198 C295.344452,295.388215 296.522191,293.339563 297.447843,290.975265 Z"
          id="路径-11" fill="#000000" fill-rule="nonzero"></path>
        <path
          d="M308.556798,275.891378 C308.826983,275.948428 308.999763,276.213704 308.942713,276.483889 C307.850299,281.65748 306.334414,286.072757 304.392511,289.729658 L303.721274,290.98036 C300.677871,296.584409 298.830194,298.991094 296.046078,300.658382 C295.418204,301.034389 294.944741,301.210954 294.556281,301.161896 C293.977847,301.088846 293.752155,300.602879 293.835069,299.979324 C293.948963,299.122785 294.656389,297.614643 295.969265,295.379691 C296.109132,295.141591 296.415535,295.061957 296.653636,295.201824 C296.891736,295.341691 296.97137,295.648095 296.831503,295.886195 L296.506669,296.446289 C295.522885,298.165975 294.965504,299.371465 294.842204,300.014314 L294.82,300.145975 L294.846377,300.138906 C294.948301,300.105551 295.086942,300.045441 295.256204,299.956278 L295.532304,299.800457 C298.306546,298.139082 300.137499,295.610298 303.509312,289.260658 C305.40431,285.692087 306.890151,281.36432 307.964286,276.277292 C308.014997,276.037128 308.230233,275.873926 308.467197,275.880692 L308.556798,275.891378 Z"
          id="路径-12" fill="#000000" fill-rule="nonzero"></path>
        <path
          d="M384,137 C388.418278,137 392,140.581722 392,145 C392,149.418278 388.418278,153 384,153 C379.581722,153 376,149.418278 376,145 C376,140.581722 379.581722,137 384,137 Z M384,138 C380.134007,138 377,141.134007 377,145 C377,148.865993 380.134007,152 384,152 C387.865993,152 391,148.865993 391,145 C391,141.134007 387.865993,138 384,138 Z"
          id="椭圆形" fill="#000000" fill-rule="nonzero"></path>
        <path
          d="M62,249.008975 C67.5228475,249.008975 72,253.486128 72,259.008975 C72,264.531823 67.5228475,269.008975 62,269.008975 C56.4771525,269.008975 52,264.531823 52,259.008975 C52,253.486128 56.4771525,249.008975 62,249.008975 Z M62,250.008975 C57.0294373,250.008975 53,254.038413 53,259.008975 C53,263.979538 57.0294373,268.008975 62,268.008975 C66.9705627,268.008975 71,263.979538 71,259.008975 C71,254.038413 66.9705627,250.008975 62,250.008975 Z"
          id="椭圆形" fill="#000000" fill-rule="nonzero"></path>
        <circle id="椭圆形" stroke="#000000" fill="#000000" cx="316" cy="83" r="5"></circle>
        <circle id="椭圆形" fill="#000000" cx="372.5" cy="434.798652" r="13.5"></circle>
        <path
          d="M75.5000806,43 L76.4999194,43.0179509 C76.3369256,52.0964886 81.1993066,58.5244525 91.1793726,62.3715014 C95.731605,64.1262654 99.7744341,65.1156258 103.314788,65.3852091 L103.89,65.4219754 L103.825082,65.2466831 C103.553975,64.4932328 103.32948,63.74807 103.151234,63.0119225 L103.065963,62.6446034 C101.874655,57.2811967 103.292346,52.6722554 106.531624,49.9694293 C109.326966,47.6370201 113.677893,47.5896476 117.037271,49.537406 C120.573375,51.5876299 121.873953,55.171664 119.747266,58.7477624 C116.840496,63.6355997 112.207043,66.2878281 105.879596,66.446895 L105.385,66.4529754 L105.52891,66.7747336 C107.735095,71.6001638 111.888745,76.7822903 118.106087,82.1161912 L118.588416,82.5267872 C130.564448,92.6435125 152.71357,102.095251 185.018277,110.856399 L187.008805,111.391933 L186.750927,112.358111 L184.752556,111.820462 C152.320025,103.024468 130.056042,93.5230824 117.9431,83.2907029 C111.173952,77.5724803 106.707886,71.9862916 104.42955,66.7644179 L104.288,66.4349754 L103.999194,66.4229987 C100.288914,66.2418745 96.0529686,65.2779174 91.2970239,63.486482 L90.8196963,63.3045785 C80.618683,59.3723603 75.4813457,52.7213998 75.4959507,43.4183277 L75.5000806,43 Z M116.535684,50.4025133 C113.517197,48.6524024 109.62008,48.6948339 107.172288,50.7372508 C104.22953,53.1926631 102.92959,57.4187954 104.042172,62.4277701 C104.251146,63.3685955 104.54056,64.3270829 104.911417,65.3014637 L104.973,65.4589754 L105.226612,65.4612381 C111.422877,65.4705253 115.909421,63.0532364 118.729898,58.4968167 L118.887768,58.2366235 C120.706333,55.1786425 119.622658,52.1923328 116.535684,50.4025133 Z"
          id="路径-30" fill="#000000" fill-rule="nonzero"></path>
        <path
          d="M114.605581,392.090337 C114.720631,391.839302 115.0174,391.729065 115.268435,391.844114 C115.519469,391.959163 115.629707,392.255932 115.514658,392.506967 C114.938387,393.764375 113.821458,394.558258 112.216922,394.879566 L112.042464,394.911331 C111.460881,395.005987 110.845652,394.988271 109.20551,394.855117 L107.834802,394.740805 C107.230101,394.692058 106.779841,394.662005 106.313432,394.640799 C103.881404,394.530224 102.240804,394.772867 101.27182,395.51726 C100.48595,396.120982 100.028107,397.209893 99.4123743,399.681483 L99.0183625,401.316716 C98.1732622,404.791282 97.3827414,406.559023 95.7605313,407.583877 C95.4822725,407.759671 95.1987334,407.915385 94.9098351,408.051762 C93.0426069,408.933203 91.3604282,408.987293 88.7685312,408.555416 L87.3444787,408.307695 C86.7765436,408.212973 86.5748001,408.194591 86.2867984,408.192448 L86.2185993,408.192214 C84.926524,408.192214 83.6167151,408.642249 82.2821496,409.55446 C82.0541746,409.710287 81.7430417,409.651799 81.5872148,409.423824 C81.4313879,409.195849 81.4898755,408.884716 81.7178504,408.728889 C83.2107012,407.708486 84.7132919,407.192214 86.2185993,407.192214 L86.449529,407.194842 C86.8125603,407.204923 87.1177714,407.250133 88.1367181,407.429713 L88.5841916,407.508947 C91.1944255,407.972466 92.7680934,407.956968 94.4829499,407.147456 C94.7349499,407.028497 94.9826815,406.892448 95.2264264,406.738458 C96.4521476,405.964092 97.1576957,404.526833 97.8795703,401.746218 L98.4473242,399.417676 C99.1209351,396.71157 99.6299868,395.517534 100.662613,394.724249 C101.821701,393.833814 103.539449,393.547078 106.001975,393.627822 L106.358852,393.641831 C106.838086,393.66362 107.297708,393.694279 107.911689,393.743756 L109.879019,393.904257 C111.097229,393.993723 111.571729,393.988913 112.02057,393.899033 C113.327542,393.637311 114.171529,393.037429 114.605581,392.090337 Z"
          id="路径-31" fill="#000000" fill-rule="nonzero"></path>
        <path
          d="M386.605581,336.090337 C386.720631,335.839302 387.0174,335.729065 387.268435,335.844114 C387.519469,335.959163 387.629707,336.255932 387.514658,336.506967 C386.938387,337.764375 385.821458,338.558258 384.216922,338.879566 L384.042464,338.911331 C383.460881,339.005987 382.845652,338.988271 381.20551,338.855117 L379.834802,338.740805 C379.230101,338.692058 378.779841,338.662005 378.313432,338.640799 C375.881404,338.530224 374.240804,338.772867 373.27182,339.51726 C372.48595,340.120982 372.028107,341.209893 371.412374,343.681483 L371.018362,345.316716 C370.173262,348.791282 369.382741,350.559023 367.760531,351.583877 C367.482273,351.759671 367.198733,351.915385 366.909835,352.051762 C365.042607,352.933203 363.360428,352.987293 360.768531,352.555416 L359.344479,352.307695 C358.776544,352.212973 358.5748,352.194591 358.286798,352.192448 L358.218599,352.192214 C356.926524,352.192214 355.616715,352.642249 354.28215,353.55446 C354.054175,353.710287 353.743042,353.651799 353.587215,353.423824 C353.431388,353.195849 353.489875,352.884716 353.71785,352.728889 C355.210701,351.708486 356.713292,351.192214 358.218599,351.192214 L358.449529,351.194842 C358.81256,351.204923 359.117771,351.250133 360.136718,351.429713 L360.584192,351.508947 C363.194425,351.972466 364.768093,351.956968 366.48295,351.147456 C366.73495,351.028497 366.982682,350.892448 367.226426,350.738458 C368.452148,349.964092 369.157696,348.526833 369.87957,345.746218 L370.447324,343.417676 C371.120935,340.71157 371.629987,339.517534 372.662613,338.724249 C373.821701,337.833814 375.539449,337.547078 378.001975,337.627822 L378.358852,337.641831 C378.838086,337.66362 379.297708,337.694279 379.911689,337.743756 L381.879019,337.904257 C383.097229,337.993723 383.571729,337.988913 384.02057,337.899033 C385.327542,337.637311 386.171529,337.037429 386.605581,336.090337 Z"
          id="路径-31" fill="#000000" fill-rule="nonzero"
          transform="translate(370.530097, 344.720126) scale(-1, 1) translate(-370.530097, -344.720126) "></path>
      </g>
    </g>
  </g>
</svg>
