<?xml version="1.0" encoding="UTF-8"?>
<svg width="113px" height="30px" viewBox="0 0 113 30" version="1.1" xmlns="http://www.w3.org/2000/svg"
  xmlns:xlink="http://www.w3.org/1999/xlink">
  <title>6</title>
  <g id="运营端" stroke="none" stroke-width="1" fill="none" fill-rule="evenodd">
    <g id="1.00-账号登录" transform="translate(-40.000000, -30.000000)">
      <g id="6" transform="translate(40.000000, 30.000000)">
        <path
          d="M63.1147793,27.9749177 L63.763353,23.3922782 L63.763353,23.3922782 L61.617572,25.0941739 L50.8035954,25.0941739 C50.2568335,25.0941739 49.8135954,24.6509358 49.8135954,24.1041739 C49.8135954,24.0502086 49.8180079,23.9963336 49.8267888,23.9430874 L51.1990076,15.6221396 C51.2778571,15.1440071 51.6912238,14.7932261 52.1758142,14.7932261 L60.7370586,14.7932261 C63.1935128,14.7932261 65.2527628,12.9369831 65.5068,10.4937 L65.5068,10.4937 L65.5068,10.4937 L45.0110615,10.4937 C44.1994931,10.4937 43.5084253,11.0838756 43.3813982,11.8854413 L40.9092088,27.4854413 C40.7665764,28.3854794 41.3805752,29.2307309 42.2806133,29.3733633 C42.3660336,29.3869001 42.4523859,29.3937 42.5388721,29.3937 L61.4810601,29.3937 C62.3029995,29.3937 62.9995994,28.7887468 63.1147793,27.9749177 Z"
          id="c" fill="#2283FF"></path>
        <path
          d="M81.565228,10.4937 C83.2181383,10.4937 84.6160753,11.7165761 84.8359112,13.3548022 L84.8359112,13.3548022 L86.7974186,27.9720307 C86.8032754,28.015676 86.8062136,28.0596635 86.8062136,28.1037 C86.8062136,28.6504619 86.3629756,29.0937 85.8162136,29.0937 L85.8162136,29.0937 L82.1689951,29.0937 C81.6714918,29.0937 81.2512628,28.7244874 81.1872295,28.2311221 L81.1872295,28.2311221 L80.6423505,24.0329226 L80.6188,24.0327 L80.6234372,24.0275126 L80.3138,20.8777 L80.3467761,20.8781523 L80.2178,19.9067 L80.16925,19.40733 L80.1518,19.4057 L79.3943698,13.6484703 L77.1939828,13.6484703 L74.0411895,20.8781523 L74.0978,20.8777 L74.0913615,20.8848829 L72.7878,24.0327 L72.7603673,24.0329226 L71.4226861,27.1095208 C70.8988267,28.3143705 69.7101736,29.0937 68.3963656,29.0937 L68.3963656,29.0937 L65.2068,29.0937 L72.4647929,11.4138413 L71.5123866,10.4937 Z"
          id="形状结合" fill="#2283FF"></path>
        <path
          d="M95.6331388,28.2402621 L97.0978557,17.723382 L97.0978557,17.723382 L101.890813,26.3269144 C102.842325,28.0349123 104.644167,29.0937 106.599322,29.0937 L108.902497,29.0937 C109.397489,29.0937 109.816409,28.7281054 109.883391,28.237667 L112.153293,11.617667 C112.22728,11.0759343 111.848098,10.5767941 111.306366,10.5028061 C111.261968,10.4967424 111.217209,10.4937 111.172399,10.4937 L107.760937,10.4937 C107.265638,10.4937 106.846556,10.8597379 106.779934,11.3505366 L105.312665,22.1597777 L105.312665,22.1597777 L99.6302699,12.1629525 C99.0437409,11.131094 97.9482638,10.4937 96.7613568,10.4937 L91.0604657,10.4937 L91.0604657,10.4937 L92.3471226,11.7424633 L89.9727383,27.9602871 C89.8935335,28.5012817 90.2678881,29.0040526 90.8088828,29.0832574 C90.8563708,29.0902099 90.9043015,29.0937 90.9522957,29.0937 L94.6526028,29.0937 C95.1465984,29.0937 95.5649963,28.7295353 95.6331388,28.2402621 Z"
          id="N" fill="#2283FF"></path>
        <path
          d="M9.38423778,-9.89075488e-13 C9.69015025,-9.86911237e-13 9.98337876,0.122244549 10.1987012,0.339543104 L37.0808182,27.468364 C37.5265434,27.9181797 37.5232274,28.6441591 37.0734116,29.0898843 C36.8586913,29.302652 36.5686376,29.4220209 36.2663548,29.4220209 L28.972,29.422 L28.9722459,29.4294 L26.9809156,29.4300105 C27.0816846,29.1292161 27.1362,28.8078087 27.1362,28.4739 C27.1362,26.7852341 25.7419152,25.4163 24.0219778,25.4163 C23.727854,25.4163 23.4432536,25.4563329 23.1733619,25.5324726 C22.5666857,23.6907039 20.8056765,22.3587 18.7278,22.3587 C16.6499235,22.3587 14.8889143,23.6907039 14.2820793,25.5311518 C14.0123464,25.4563329 13.727746,25.4163 13.4336222,25.4163 C11.7136848,25.4163 10.3194,26.7852341 10.3194,28.4739 C10.3194,28.8077425 10.3738938,29.1290887 10.4746245,29.4298317 L9.09784587,29.4294 L9.097,29.422 L1.14660008,29.4220209 C0.844317259,29.4220209 0.55426349,29.302652 0.339543179,29.0898843 C-0.0781428726,28.6759966 -0.110836822,28.0204612 0.243496224,27.5687773 L0.332136616,27.468364 L12.969,14.7147 L12.977,14.714 L0.332136616,1.9536569 C-0.1135886,1.50384115 -0.110272569,0.777861757 0.339543179,0.332136541 C0.55426349,0.119368852 0.844317259,-9.89686094e-13 1.14660008,-9.89075488e-13 L9.38423778,-9.89075488e-13 Z"
          id="形状结合" fill="#00C3FF"></path>
        <path
          d="M36.3413089,3.19531068e-12 C36.6435917,3.19470008e-12 36.9336455,0.119368852 37.1483658,0.332136541 C37.5981815,0.777861757 37.6014976,1.50384115 37.1557723,1.9536569 L37.1557723,1.9536569 L27.2969037,11.902 L21.5379037,6.143 L27.2892077,0.339543104 C27.4737698,0.1532872 27.7155691,0.0368668918 27.9735326,0.00740508744 L28.1036712,3.19531068e-12 Z"
          id="形状结合" fill="#2283FF"></path>
      </g>
    </g>
  </g>
</svg>
